<svg width="11" height="11" viewBox="0 0 11 11" fill="none" xmlns="http://www.w3.org/2000/svg">
<g clip-path="url(#clip0)">
<path d="M7.52954 2.69113C7.00253 1.95107 6.4643 1.17737 6.04942 0.370031C5.93729 0.14577 5.70182 0 5.45513 0C5.20844 0 4.97297 0.134557 4.86084 0.370031C4.45717 1.16616 3.94137 1.91743 3.44799 2.64628C2.45003 4.09276 1.51935 5.44954 1.51935 6.9633C1.51935 9.30683 3.16767 11 5.44391 11C7.74259 11 9.48061 9.26198 9.48061 6.9633C9.48061 5.46075 8.5275 4.11519 7.52954 2.69113ZM5.44391 10.5515C3.42557 10.5515 1.96787 9.03772 1.96787 6.9633C1.96787 5.59531 2.86491 4.28338 3.80681 2.90418C4.3114 2.16412 4.83841 1.39042 5.25329 0.571865C5.30936 0.459735 5.41028 0.448522 5.45513 0.448522C5.49998 0.448522 5.6009 0.459735 5.65696 0.571865C6.08306 1.40163 6.6325 2.18654 7.17072 2.94903C8.12383 4.31702 9.03209 5.60652 9.03209 6.9633C9.03209 9.00408 7.48469 10.5515 5.44391 10.5515Z" fill="#555555"/>
<path d="M4.3899 3.29664C4.28898 3.22937 4.14321 3.25179 4.07593 3.35271C3.69469 3.93579 3.24616 4.60857 2.92098 5.29257C2.86492 5.4047 2.92098 5.53926 3.03311 5.59533C3.06675 5.60654 3.10039 5.61775 3.13403 5.61775C3.21252 5.61775 3.30223 5.5729 3.33587 5.49441C3.64983 4.83284 4.07593 4.18248 4.45718 3.62182C4.52446 3.50969 4.49082 3.37514 4.3899 3.29664Z" fill="#555555"/>
<path d="M2.93221 5.85321C2.82008 5.80836 2.68552 5.86442 2.64067 5.97655C2.59582 6.0999 2.55096 6.22324 2.52854 6.34658C2.50611 6.46993 2.5846 6.58206 2.70795 6.6157C2.71916 6.6157 2.74159 6.6157 2.7528 6.6157C2.85372 6.6157 2.95463 6.53721 2.97706 6.43629C2.99949 6.33537 3.02191 6.23445 3.06677 6.13354C3.11162 6.03262 3.05555 5.90928 2.93221 5.85321Z" fill="#555555"/>
</g>
<defs>
<clipPath id="clip0">
<rect width="11" height="11" fill="white"/>
</clipPath>
</defs>
</svg>
