<svg width="30" height="30" viewBox="0 0 30 30" fill="none" xmlns="http://www.w3.org/2000/svg">
<path d="M23.4034 13.75H22.4159L22.0659 13.4125C23.2909 11.9875 24.0284 10.1375 24.0284 8.125C24.0284 3.6375 20.3909 0 15.9034 0C11.4158 0 7.77832 3.6375 7.77832 8.125C7.77832 12.6125 11.4158 16.25 15.9034 16.25C17.9159 16.25 19.7659 15.5125 21.1909 14.2875L21.5284 14.6375V15.625L27.7784 21.8625L29.6409 20L23.4034 13.75ZM15.9034 13.75C12.7908 13.75 10.2783 11.2375 10.2783 8.125C10.2783 5.0125 12.7908 2.5 15.9034 2.5C19.0159 2.5 21.5284 5.0125 21.5284 8.125C21.5284 11.2375 19.0159 13.75 15.9034 13.75Z" fill="#B4B4B4"/>
</svg>
